<svg width="242" height="162" viewBox="0 0 242 162" fill="none" xmlns="http://www.w3.org/2000/svg">
<path d="M117.812 149.883L17.545 97.2388C14.3506 95.6267 11.616 93.0313 14.7257 91.3279L115.355 39.8012C116.868 38.9683 119.161 38.4255 120.691 39.2154L225.961 93.4881C229.156 95.1324 229.725 99.7375 226.53 101.382L131.031 149.781C129.028 150.819 126.755 151.375 124.437 151.393C122.118 151.411 119.834 150.89 117.812 149.883Z" fill="#003A75"/>
<path d="M118.78 136.761L42.5497 96.7498C40.1297 95.5408 38.0424 93.5257 40.408 92.2522L116.91 53.0899C118.06 52.4612 119.802 52.0421 120.97 52.6439L200.981 93.8965C203.401 95.1485 203.843 98.6467 201.417 99.8933L128.817 136.702C127.293 137.485 125.567 137.902 123.807 137.913C122.047 137.923 120.314 137.526 118.78 136.761Z" stroke="#F2F2F2" stroke-width="1.015" stroke-miterlimit="10"/>
<path d="M118.822 123.166L62.2726 93.4827C60.4576 92.5853 58.927 91.113 60.6815 90.1457L117.437 61.1179C118.29 60.6504 119.578 60.3441 120.462 60.7901L179.824 91.387C181.639 92.3166 181.948 94.9121 180.145 95.8363L126.3 123.145C125.164 123.727 123.876 124.036 122.564 124.039C121.252 124.043 119.962 123.742 118.822 123.166Z" stroke="#F2F2F2" stroke-width="1.015" stroke-miterlimit="10"/>
<path d="M119.445 108.298L86.2972 90.898C85.2445 90.3607 84.337 89.5063 85.3655 88.9421L118.641 71.9134C118.894 71.7532 119.188 71.6517 119.496 71.6179C119.805 71.5841 120.118 71.6192 120.407 71.7199L155.207 89.6568C156.265 90.1941 156.453 91.7202 155.394 92.2683L123.825 108.276C123.161 108.618 122.407 108.8 121.638 108.804C120.87 108.808 120.114 108.633 119.445 108.298Z" fill="#68E1FD"/>
<path d="M91.5002 58.7375L115.125 44.6534H130.244L149.883 58.7375L120.619 74.0628L91.5002 58.7375Z" fill="#8AA80E"/>
<path d="M120.619 71.3277C120.389 71.145 120.619 23.831 120.619 23.831L150.5 56.0077L120.619 71.3277Z" fill="#9DCB00"/>
<path d="M120.619 71.333L91.5002 56.1636L120.619 23.8364V71.333Z" fill="#7C9900"/>
<path d="M149.883 58.7375L120.619 94.4929V74.0628L149.883 58.7375Z" fill="#7C9900"/>
<path d="M120.619 95.1001L91.5002 58.7375L120.619 74.0628V95.1001Z" fill="#9DCB00"/>
<path d="M43.7415 101.419L29.9596 94.192C29.518 93.9717 29.1429 93.6117 29.5724 93.3806L43.4027 86.2983C43.5076 86.2319 43.6294 86.1897 43.7573 86.1756C43.8851 86.1615 44.0148 86.176 44.1348 86.2177L58.6003 93.6762C58.7036 93.7299 58.7904 93.8053 58.8532 93.8957C58.9161 93.9862 58.953 94.0889 58.9608 94.195C58.9685 94.301 58.9469 94.4072 58.8978 94.5041C58.8486 94.601 58.7735 94.6857 58.679 94.7509L45.5626 101.419C45.2859 101.562 44.9718 101.637 44.6521 101.637C44.3323 101.637 44.0182 101.562 43.7415 101.419Z" fill="#68E1FD"/>
<path d="M123.595 143.763L109.814 136.53C109.372 136.31 108.997 135.95 109.426 135.719L123.257 128.636C123.361 128.57 123.483 128.528 123.611 128.514C123.739 128.5 123.869 128.514 123.989 128.556L138.454 136.014C138.557 136.068 138.644 136.143 138.707 136.234C138.77 136.324 138.807 136.427 138.815 136.533C138.822 136.639 138.801 136.745 138.752 136.842C138.703 136.939 138.627 137.024 138.533 137.089L125.416 143.752C125.141 143.896 124.827 143.973 124.508 143.975C124.188 143.977 123.873 143.904 123.595 143.763Z" fill="#68E1FD"/>
<path d="M195.929 103.988L182.147 96.7552C181.706 96.5349 181.331 96.1749 181.76 95.9438L195.59 88.8615C195.695 88.795 195.817 88.7529 195.945 88.7388C196.073 88.7247 196.203 88.7392 196.323 88.7809L210.788 96.2393C210.891 96.2931 210.978 96.3685 211.041 96.4589C211.104 96.5494 211.141 96.6521 211.148 96.7582C211.156 96.8642 211.135 96.9703 211.086 97.0672C211.036 97.1642 210.961 97.2489 210.867 97.314L197.744 103.966C197.47 104.111 197.159 104.189 196.84 104.193C196.521 104.197 196.207 104.126 195.929 103.988Z" fill="#68E1FD"/>
<path d="M188.173 84.8958L194.755 80.9678H198.972L204.454 84.8958L196.292 89.1678L188.173 84.8958Z" fill="#8AA80E"/>
<path d="M196.292 88.4101C196.226 88.3617 196.292 75.1643 196.292 75.1643L204.623 84.1381L196.292 88.4101Z" fill="#9DCB00"/>
<path d="M196.292 88.4101L188.173 84.1757L196.292 75.1643V88.4101Z" fill="#7C9900"/>
<path d="M204.454 84.8958L196.292 94.8691V89.1678L204.454 84.8958Z" fill="#7C9900"/>
<path d="M196.292 95.0357L188.173 84.8958L196.292 89.1678V95.0357Z" fill="#9DCB00"/>
<path d="M115.809 127.126L122.398 123.198H126.614L132.09 127.126L123.928 131.398L115.809 127.126Z" fill="#8AA80E"/>
<path d="M123.928 130.635C123.862 130.587 123.928 117.39 123.928 117.39L132.259 126.363L123.928 130.635Z" fill="#9DCB00"/>
<path d="M123.928 130.635L115.809 126.406L123.928 117.39V130.635Z" fill="#7C9900"/>
<path d="M132.09 127.126L123.928 137.094V131.398L132.09 127.126Z" fill="#7C9900"/>
<path d="M123.928 137.266L115.809 127.126L123.928 131.398V137.266Z" fill="#9DCB00"/>
<path d="M35.822 85.315L42.4105 81.3869H46.6213L52.1026 85.315L43.9411 89.5923L35.822 85.315Z" fill="#8AA80E"/>
<path d="M43.9412 88.8292C43.8746 88.7809 43.9412 75.5835 43.9412 75.5835L52.2721 84.5573L43.9412 88.8292Z" fill="#9DCB00"/>
<path d="M43.9411 88.8292L35.822 84.6003L43.9411 75.5835V88.8292Z" fill="#7C9900"/>
<path d="M52.1026 85.3149L43.9412 95.2882V89.5923L52.1026 85.3149Z" fill="#7C9900"/>
<path d="M43.9411 95.4548L35.822 85.3149L43.9411 89.5923V95.4548Z" fill="#9DCB00"/>
</svg>
