<svg width="400" height="86" viewBox="0 0 400 86" fill="none" xmlns="http://www.w3.org/2000/svg">
<path d="M51.0547 3.59375C50.1432 3.64583 49.2122 3.67188 48.2617 3.67188V27.4023C48.7174 27.3763 49.1797 27.3633 49.6484 27.3633C50.1302 27.3633 50.599 27.3503 51.0547 27.3242V3.59375ZM53.6523 27.3242C57.1549 27.3242 60.293 27.4154 63.0664 27.5977L63.7695 22.3633C63.8216 22.1029 63.9388 21.8945 64.1211 21.7383C64.3164 21.569 64.5508 21.4844 64.8242 21.4844C65.1107 21.4844 65.3451 21.5951 65.5273 21.8164C65.7227 22.0378 65.8203 22.2591 65.8203 22.4805V22.6367L64.9805 28.8281C64.9414 29.0885 64.8242 29.2969 64.6289 29.4531C64.4336 29.6224 64.2057 29.707 63.9453 29.707H63.9062C60.4036 29.4727 56.9727 29.3555 53.6133 29.3555C50.2539 29.3555 47.0052 29.4727 43.8672 29.707H43.7695C43.4701 29.681 43.2227 29.5768 43.0273 29.3945C42.832 29.2122 42.7344 28.9844 42.7344 28.7109C42.7344 28.4245 42.8255 28.1901 43.0078 28.0078C43.1901 27.8125 43.4505 27.7018 43.7891 27.6758C44.1406 27.6367 44.5247 27.6107 44.9414 27.5977C45.3711 27.5716 45.7943 27.5456 46.2109 27.5195V3.71094C45.7943 3.6849 45.3776 3.67188 44.9609 3.67188H43.7305C43.457 3.64583 43.2227 3.54167 43.0273 3.35938C42.832 3.16406 42.7344 2.92318 42.7344 2.63672C42.7344 2.35026 42.8385 2.10938 43.0469 1.91406C43.2552 1.70573 43.5482 1.60807 43.9258 1.62109C44.3164 1.63411 44.7396 1.64062 45.1953 1.64062H46.582C52.0898 1.64062 57.5521 1.27604 62.9688 0.546875H63.1445C63.4049 0.546875 63.6263 0.638021 63.8086 0.820312C63.9909 0.989583 64.1016 1.19141 64.1406 1.42578L64.9805 8.02734V8.16406C64.9805 8.46354 64.8698 8.70443 64.6484 8.88672C64.4401 9.06901 64.2057 9.16016 63.9453 9.16016C63.6979 9.16016 63.4766 9.08203 63.2812 8.92578C63.099 8.75651 62.9818 8.54167 62.9297 8.28125L62.2266 2.71484C59.6484 3.06641 56.6081 3.33333 53.1055 3.51562V16.3867C55.9049 16.2695 58.0924 16.0612 59.668 15.7617H59.8633C60.1367 15.7617 60.3776 15.8659 60.5859 16.0742C60.7943 16.2695 60.8984 16.4974 60.8984 16.7578C60.8984 17.3047 60.6185 17.6497 60.0586 17.793C58.5221 18.0924 56.2044 18.3073 53.1055 18.4375V27.3242H53.6523Z" fill="#D3F16B"/>
<path d="M77.9883 2.98828C77.9883 2.98828 77.513 2.98828 76.5625 2.98828C76.1068 2.98828 75.6315 2.97526 75.1367 2.94922L74.707 27.3633H77.3047L77.9883 2.98828ZM89.8242 0.585938C90.4622 0.677083 91.2109 0.722656 92.0703 0.722656C93.763 0.722656 95.4557 0.494792 97.1484 0.0390625C97.2005 0.0130208 97.3307 0 97.5391 0C97.7474 0 97.9427 0.104167 98.125 0.3125C98.3203 0.507812 98.418 0.722656 98.418 0.957031C98.418 1.50391 98.1901 1.84245 97.7344 1.97266C96.7448 2.24609 95.8398 2.44141 95.0195 2.55859C95.6315 6.28255 95.9375 9.81771 95.9375 13.1641C95.9375 18.0599 95.5924 23.2812 94.9023 28.8281C94.7461 29.4141 94.4206 29.707 93.9258 29.707C93.444 29.707 93.1185 29.4987 92.9492 29.082C91.9206 26.5951 90.4232 23.5612 88.457 19.9805C86.4909 16.3867 85.0911 13.8411 84.2578 12.3438C82.8125 9.79167 81.3867 7.27865 79.9805 4.80469L79.3945 27.4414C80.1367 27.4935 81.1589 27.5716 82.4609 27.6758C82.7214 27.7148 82.9362 27.832 83.1055 28.0273C83.2878 28.2227 83.3789 28.4635 83.3789 28.75C83.3789 29.0234 83.2682 29.2513 83.0469 29.4336C82.8255 29.6159 82.5911 29.707 82.3438 29.707H82.2656C78.112 29.2904 74.0039 29.2904 69.9414 29.707H69.8633C69.5768 29.707 69.3294 29.6029 69.1211 29.3945C68.9258 29.1992 68.8281 28.9714 68.8281 28.7109C68.8281 28.4505 68.9128 28.2227 69.082 28.0273C69.2643 27.832 69.5378 27.7148 69.9023 27.6758C70.2799 27.6367 70.7096 27.5977 71.1914 27.5586C71.6862 27.5195 72.1745 27.4805 72.6562 27.4414L73.1055 2.79297C71.9857 2.71484 70.8529 2.59766 69.707 2.44141C69.4466 2.40234 69.2318 2.28516 69.0625 2.08984C68.9062 1.88151 68.8281 1.63411 68.8281 1.34766C68.8281 1.0612 68.9453 0.833333 69.1797 0.664062C69.4141 0.481771 69.6419 0.390625 69.8633 0.390625H69.9805C72.8711 0.768229 75.5664 0.957031 78.0664 0.957031H79.5117C79.8893 0.957031 80.1432 1.0612 80.2734 1.26953C80.4036 1.46484 80.612 1.8099 80.8984 2.30469C81.1849 2.79948 81.556 3.44401 82.0117 4.23828C82.4674 5.03255 82.9883 5.95052 83.5742 6.99219C84.1732 8.03385 84.8047 9.14714 85.4688 10.332C86.1458 11.5169 86.8359 12.7474 87.5391 14.0234C88.2422 15.2995 88.9323 16.569 89.6094 17.832C91.237 20.8529 92.4674 23.2161 93.3008 24.9219C93.7044 20.8594 93.9062 17.3242 93.9062 14.3164C93.9062 10.3971 93.6003 6.52995 92.9883 2.71484C92.819 2.74089 92.6562 2.75391 92.5 2.75391H91.9922C90.2214 2.75391 89.2253 2.63021 89.0039 2.38281C88.7826 2.1224 88.6719 1.85547 88.6719 1.58203C88.6719 1.30859 88.776 1.07422 88.9844 0.878906C89.2057 0.683594 89.4466 0.585938 89.707 0.585938H89.8242Z" fill="#D3F16B"/>
<path d="M110.879 3.67188C106.4 5.88542 104.16 9.99349 104.16 15.9961C104.16 20.0065 105.326 23.0469 107.656 25.1172C108.424 25.8073 109.336 26.4323 110.391 26.9922C108.177 24.3099 107.07 20.4036 107.07 15.2734C107.07 10.1823 108.34 6.3151 110.879 3.67188ZM117.031 0.234375C120.664 0.234375 123.548 1.50391 125.684 4.04297L126.758 0.957031C126.927 0.47526 127.201 0.234375 127.578 0.234375C127.956 0.234375 128.242 0.345052 128.438 0.566406C128.646 0.77474 128.75 0.976562 128.75 1.17188C128.75 1.35417 128.724 1.4974 128.672 1.60156L125.566 10.6836C125.436 11.1263 125.163 11.3477 124.746 11.3477C124.342 11.3477 124.043 11.237 123.848 11.0156C123.652 10.7943 123.555 10.6055 123.555 10.4492C123.555 10.2799 123.581 10.1432 123.633 10.0391L124.883 6.38672C123.776 4.61589 122.298 3.40495 120.449 2.75391C119.837 2.54557 119.076 2.44141 118.164 2.44141C117.266 2.44141 116.348 2.6237 115.41 2.98828C114.486 3.35286 113.672 3.84766 112.969 4.47266C112.279 5.09766 111.686 5.83333 111.191 6.67969C110.697 7.51302 110.299 8.40495 110 9.35547C109.414 11.1523 109.121 13.125 109.121 15.2734C109.121 18.4375 109.616 21.2174 110.605 23.6133C111.374 25.4622 112.461 26.7773 113.867 27.5586C114.596 27.9622 115.482 28.1641 116.523 28.1641C117.578 28.1641 118.613 28.0013 119.629 27.6758C120.658 27.3503 121.589 26.8815 122.422 26.2695C124.18 25.0065 125.41 23.3398 126.113 21.2695C126.257 20.7357 126.53 20.4688 126.934 20.4688C127.337 20.4688 127.637 20.5794 127.832 20.8008C128.027 21.0221 128.125 21.263 128.125 21.5234V21.7578C128.112 21.7839 128.066 21.9141 127.988 22.1484C127.923 22.3828 127.812 22.6888 127.656 23.0664C126.419 25.8659 124.414 27.8776 121.641 29.1016C119.974 29.8307 118.125 30.1823 116.094 30.1562C114.076 30.1432 112.181 29.7982 110.41 29.1211C108.652 28.431 107.161 27.4674 105.938 26.2305C103.385 23.6914 102.109 20.2799 102.109 15.9961C102.109 10.4883 103.737 6.3737 106.992 3.65234C109.74 1.3737 113.086 0.234375 117.031 0.234375Z" fill="#D3F16B"/>
<path d="M137.168 27.2852C137.819 27.2201 138.672 27.1875 139.727 27.1875L140.41 2.83203C139.316 2.88411 138.366 2.94922 137.559 3.02734L137.168 27.2852ZM151.855 27.6367C150.671 25.9961 150.078 23.1966 150.078 19.2383V18.5352C150.078 18.3008 150.091 18.0924 150.117 17.9102C148.802 18.1445 147.91 18.2812 147.441 18.3203C147.389 18.6849 147.363 19.2188 147.363 19.9219C147.363 20.612 147.422 21.3932 147.539 22.2656C147.669 23.138 147.904 23.9518 148.242 24.707C148.984 26.4258 150.189 27.4023 151.855 27.6367ZM142.09 16.0352C142.962 16.2174 143.945 16.3086 145.039 16.3086C146.133 16.3086 147.09 16.263 147.91 16.1719C148.73 16.0807 149.531 15.931 150.312 15.7227C151.107 15.5143 151.855 15.2409 152.559 14.9023C153.262 14.5508 153.88 14.1211 154.414 13.6133C155.56 12.4805 156.133 11.0612 156.133 9.35547C156.133 6.79036 154.915 4.99349 152.48 3.96484C151.009 3.35286 149.492 2.99479 147.93 2.89062C146.367 2.77344 145.241 2.71484 144.551 2.71484H143.145C142.897 2.71484 142.663 2.72786 142.441 2.75391L142.09 16.0352ZM157.363 22.4023L157.324 21.7969C157.324 21.4974 157.428 21.2565 157.637 21.0742C157.858 20.8919 158.099 20.8008 158.359 20.8008C158.62 20.8008 158.848 20.8919 159.043 21.0742C159.238 21.2435 159.349 21.4583 159.375 21.7188L159.414 22.4023C159.414 24.5508 158.802 26.2956 157.578 27.6367C156.328 29.0169 154.688 29.707 152.656 29.707H152.598C149.212 29.6159 146.999 27.832 145.957 24.3555C145.54 22.9753 145.332 21.4258 145.332 19.707L145.371 18.3984C144.368 18.3984 143.262 18.3073 142.051 18.125L141.758 28.2422C141.758 28.5547 141.654 28.8021 141.445 28.9844C141.25 29.1536 141.009 29.2383 140.723 29.2383C137.676 29.2383 134.902 29.3945 132.402 29.707H132.285C131.986 29.707 131.738 29.6029 131.543 29.3945C131.348 29.1992 131.25 28.9714 131.25 28.7109C131.25 28.4505 131.328 28.2227 131.484 28.0273C131.654 27.832 131.921 27.7083 132.285 27.6562C132.663 27.6042 133.099 27.5586 133.594 27.5195C134.102 27.4805 134.596 27.4414 135.078 27.4023L135.527 3.32031L132.559 3.90625C132.467 3.97135 132.324 4.00391 132.129 4.00391C131.934 4.00391 131.738 3.89974 131.543 3.69141C131.348 3.48307 131.25 3.2487 131.25 2.98828C131.25 2.46745 131.491 2.13542 131.973 1.99219C134.59 1.11979 138.587 0.683594 143.965 0.683594C146.986 0.839844 149.18 1.07422 150.547 1.38672C151.927 1.69922 153.053 2.05729 153.926 2.46094C154.798 2.85156 155.547 3.35938 156.172 3.98438C157.5 5.28646 158.164 7.07682 158.164 9.35547C158.164 11.2174 157.611 12.8711 156.504 14.3164C155.449 15.6966 154.017 16.6862 152.207 17.2852C152.155 17.8841 152.129 18.418 152.129 18.8867C152.129 19.3424 152.135 19.8177 152.148 20.3125C152.161 20.8073 152.194 21.3477 152.246 21.9336C152.298 22.5195 152.376 23.1185 152.48 23.7305C152.598 24.3424 152.747 24.9023 152.93 25.4102C153.359 26.543 153.945 27.1094 154.688 27.1094C155.599 27.1094 156.302 26.5039 156.797 25.293C157.174 24.3945 157.363 23.431 157.363 22.4023Z" fill="#D3F16B"/>
<path d="M171.777 3.28125C171.777 3.28125 171.302 3.28125 170.352 3.28125C169.896 3.28125 169.421 3.26823 168.926 3.24219L168.496 27.2852H171.094L171.777 3.28125ZM163.77 0.683594C166.348 1.04818 168.802 1.23047 171.133 1.23047C173.464 1.23047 175.28 1.16536 176.582 1.03516H176.66C176.96 1.03516 177.207 1.13932 177.402 1.34766C177.598 1.55599 177.695 1.79688 177.695 2.07031C177.695 2.33073 177.604 2.55859 177.422 2.75391C177.24 2.9362 176.96 3.04688 176.582 3.08594C175.905 3.15104 174.98 3.21615 173.809 3.28125L173.184 27.3633C173.926 27.4154 174.948 27.4935 176.25 27.5977C176.862 27.7279 177.168 28.099 177.168 28.7109C177.142 28.9974 177.025 29.2188 176.816 29.375C176.621 29.5443 176.393 29.6289 176.133 29.6289H176.055C171.901 29.2122 167.793 29.2122 163.73 29.6289H163.652C163.353 29.6289 163.105 29.5312 162.91 29.3359C162.715 29.1276 162.617 28.8932 162.617 28.6328C162.617 28.3724 162.702 28.1445 162.871 27.9492C163.053 27.7539 163.327 27.6367 163.691 27.5977C164.069 27.5586 164.499 27.5195 164.98 27.4805C165.475 27.4414 165.964 27.4023 166.445 27.3633L166.895 3.06641C165.775 2.98828 164.642 2.87109 163.496 2.71484C163.236 2.67578 163.021 2.55859 162.852 2.36328C162.695 2.16797 162.617 1.92708 162.617 1.64062C162.617 1.35417 162.734 1.1263 162.969 0.957031C163.203 0.77474 163.431 0.683594 163.652 0.683594H163.77Z" fill="#D3F16B"/>
<path d="M189.863 2.71484C188.77 2.76693 187.819 2.83203 187.012 2.91016L186.582 27.3633H189.18L189.863 2.71484ZM191.465 19.1992C192.272 19.4076 193.281 19.5117 194.492 19.5117C195.703 19.5117 196.927 19.3359 198.164 18.9844C199.414 18.6198 200.508 18.0859 201.445 17.3828C203.503 15.8594 204.531 13.7565 204.531 11.0742C204.531 7.35026 202.52 4.85026 198.496 3.57422C197.012 3.09245 195.267 2.80599 193.262 2.71484H191.895L191.465 19.1992ZM194.141 29.707C189.987 29.2904 185.879 29.2904 181.816 29.707H181.738C181.452 29.707 181.204 29.6029 180.996 29.3945C180.801 29.1992 180.703 28.9714 180.703 28.7109C180.703 28.4505 180.788 28.2227 180.957 28.0273C181.139 27.832 181.413 27.7148 181.777 27.6758C182.155 27.6367 182.585 27.5977 183.066 27.5586C183.561 27.5195 184.049 27.4805 184.531 27.4414L184.98 3.20312C184.017 3.35938 183.301 3.51562 182.832 3.67188C182.376 3.82812 182.103 3.92578 182.012 3.96484C181.921 3.99089 181.777 4.00391 181.582 4.00391C181.4 4.00391 181.204 3.89323 180.996 3.67188C180.801 3.45052 180.703 3.22266 180.703 2.98828C180.703 2.48047 180.918 2.14844 181.348 1.99219C184.043 1.09375 187.428 0.644531 191.504 0.644531H192.383C192.695 0.644531 193.21 0.664062 193.926 0.703125C194.642 0.729167 195.547 0.833333 196.641 1.01562C197.734 1.19792 198.776 1.47786 199.766 1.85547C200.755 2.22005 201.66 2.67578 202.48 3.22266C203.314 3.76953 204.036 4.42057 204.648 5.17578C205.938 6.79036 206.582 8.75651 206.582 11.0742C206.582 14.2904 205.254 16.8945 202.598 18.8867C200.202 20.6706 197.422 21.5625 194.258 21.5625C193.151 21.5625 192.207 21.4648 191.426 21.2695L191.27 27.4414C192.012 27.4935 193.034 27.5716 194.336 27.6758C194.596 27.7148 194.811 27.832 194.98 28.0273C195.163 28.2227 195.254 28.4635 195.254 28.75C195.254 29.0234 195.143 29.2513 194.922 29.4336C194.701 29.6159 194.466 29.707 194.219 29.707H194.141Z" fill="#D3F16B"/>
<path d="M222.305 3.4375C222.305 3.4375 221.367 3.42448 219.492 3.39844L219.062 27.4805C219.284 27.4544 219.505 27.4414 219.727 27.4414C220.143 27.4414 220.514 27.4414 220.84 27.4414C221.165 27.4414 221.439 27.4544 221.66 27.4805L222.305 3.4375ZM211.094 0.839844C213.802 1.20443 217.344 1.38672 221.719 1.38672C226.094 1.38672 229.089 1.32161 230.703 1.19141H230.781C231.016 1.19141 231.23 1.27604 231.426 1.44531C231.621 1.60156 231.725 1.74479 231.738 1.875C231.764 1.99219 231.797 2.15495 231.836 2.36328C231.875 2.57161 231.927 2.85156 231.992 3.20312C232.057 3.55469 232.135 3.95833 232.227 4.41406C232.331 4.86979 232.441 5.34505 232.559 5.83984C232.858 7.0638 233.132 8.02083 233.379 8.71094L233.418 9.04297C233.418 9.31641 233.307 9.55729 233.086 9.76562C232.878 9.97396 232.656 10.0781 232.422 10.0781C231.927 10.0781 231.595 9.83724 231.426 9.35547C230.749 7.38932 230.254 5.3776 229.941 3.32031C228.457 3.39844 226.589 3.4375 224.336 3.4375L223.691 27.5586C225.944 27.6367 227.174 27.7995 227.383 28.0469C227.591 28.2812 227.695 28.5482 227.695 28.8477C227.695 29.1341 227.585 29.3685 227.363 29.5508C227.155 29.7461 226.934 29.8438 226.699 29.8438H226.582C224.785 29.6224 222.715 29.5117 220.371 29.5117C218.027 29.5117 216.003 29.6224 214.297 29.8438H214.18C213.893 29.8438 213.646 29.7331 213.438 29.5117C213.242 29.2904 213.145 29.0495 213.145 28.7891C213.145 28.5286 213.229 28.3008 213.398 28.1055C213.672 27.832 214.876 27.6497 217.012 27.5586L217.461 3.32031C215.404 3.24219 213.496 3.13151 211.738 2.98828C211.66 3.33984 211.562 3.76953 211.445 4.27734C211.341 4.78516 211.224 5.32552 211.094 5.89844C210.677 7.59115 210.41 8.63932 210.293 9.04297C210.085 9.73307 209.74 10.0781 209.258 10.0781C208.958 10.0781 208.711 9.97396 208.516 9.76562C208.32 9.54427 208.223 9.35547 208.223 9.19922V8.88672C208.223 8.83464 208.275 8.6263 208.379 8.26172C208.496 7.89714 208.652 7.30469 208.848 6.48438C209.043 5.66406 209.219 4.89583 209.375 4.17969C209.753 2.55208 209.941 1.70573 209.941 1.64062C210.085 1.10677 210.417 0.839844 210.938 0.839844H211.094Z" fill="#D3F16B"/>
<path d="M241.055 19.082C243.372 19.3424 245.163 19.4727 246.426 19.4727C248.366 19.4727 250.423 19.3424 252.598 19.082C251.165 14.694 249.251 10.7292 246.855 7.1875C244.447 11.276 242.513 15.2409 241.055 19.082ZM257.168 27.1875L258.809 27.1484H259.414C259.609 27.1484 259.805 27.1615 260 27.1875C257.695 17.3568 254.206 9.26432 249.531 2.91016L248.008 5.27344C250.69 8.94531 252.852 13.2682 254.492 18.2422C256.016 22.9948 256.908 25.9766 257.168 27.1875ZM243.32 29.8047C241.979 29.401 240.286 29.1992 238.242 29.1992C236.198 29.1992 234.505 29.401 233.164 29.8047C232.865 29.8047 232.617 29.7005 232.422 29.4922C232.227 29.2839 232.129 29.0495 232.129 28.7891C232.129 28.2422 232.409 27.8971 232.969 27.7539C233.867 27.5195 235.052 27.3438 236.523 27.2266C238.242 18.8672 242.272 9.98698 248.613 0.585938C248.822 0.299479 249.056 0.15625 249.316 0.15625C249.759 0.15625 250.072 0.273438 250.254 0.507812C255.671 7.42188 259.629 16.3477 262.129 27.2852C263.457 27.4023 264.779 27.5586 266.094 27.7539C266.354 27.793 266.562 27.9102 266.719 28.1055C266.888 28.3008 266.973 28.5286 266.973 28.7891C266.973 29.0495 266.855 29.2839 266.621 29.4922C266.4 29.7005 266.224 29.8047 266.094 29.8047C265.911 29.8047 265.514 29.7461 264.902 29.6289C262.376 29.1732 259.232 29.082 255.469 29.3555C254.362 29.4336 253.529 29.5247 252.969 29.6289C252.409 29.7331 252.116 29.7852 252.09 29.7852C252.064 29.7982 251.973 29.8047 251.816 29.8047C251.66 29.8047 251.478 29.694 251.27 29.4727C251.074 29.2513 250.977 29.0169 250.977 28.7695C250.977 28.5221 251.055 28.3008 251.211 28.1055C251.38 27.9102 251.66 27.7799 252.051 27.7148C252.441 27.6367 252.904 27.5716 253.438 27.5195C253.971 27.4544 254.518 27.3893 255.078 27.3242C254.505 25.1497 253.893 23.0534 253.242 21.0352C250.938 21.3607 248.828 21.5234 246.914 21.5234C245 21.5234 242.806 21.3607 240.332 21.0352C239.642 23.0924 239.082 25.1302 238.652 27.1484C240.306 27.2005 241.947 27.4023 243.574 27.7539C243.809 27.793 243.997 27.9102 244.141 28.1055C244.297 28.3008 244.375 28.5352 244.375 28.8086C244.375 29.069 244.258 29.2969 244.023 29.4922C243.802 29.7005 243.568 29.8047 243.32 29.8047Z" fill="#D3F16B"/>
<path d="M273.496 27.9102C274.629 28.0143 275.547 28.0859 276.25 28.125V2.98828C275.404 3.05339 274.486 3.16406 273.496 3.32031V27.9102ZM291.602 19.0234C291.927 17.9036 292.09 16.5169 292.09 14.8633C292.09 13.1966 291.738 11.5625 291.035 9.96094C290.332 8.34635 289.362 6.9987 288.125 5.91797C285.586 3.70443 282.311 2.71484 278.301 2.94922V28.125C282.103 28.2422 285.339 27.0964 288.008 24.6875C289.74 23.138 290.938 21.25 291.602 19.0234ZM271.465 3.67188L268.418 4.43359C268.118 4.43359 267.878 4.32943 267.695 4.12109C267.513 3.89974 267.422 3.66536 267.422 3.41797C267.422 2.89714 267.65 2.57161 268.105 2.44141C268.158 2.42839 268.444 2.34375 268.965 2.1875C269.499 2.01823 270.208 1.84245 271.094 1.66016C273.411 1.16536 275.729 0.917969 278.047 0.917969C280.378 0.917969 282.52 1.22396 284.473 1.83594C286.426 2.4349 288.118 3.33984 289.551 4.55078C292.611 7.14193 294.141 10.7812 294.141 15.4688C294.141 18.5677 293.34 21.276 291.738 23.5938C290.267 25.7161 288.203 27.3633 285.547 28.5352C282.982 29.6419 280.15 30.1953 277.051 30.1953C273.9 30.1953 271.035 29.7656 268.457 28.9062C268.001 28.724 267.773 28.444 267.773 28.0664C267.773 27.6888 267.884 27.4023 268.105 27.207C268.327 27.0117 268.568 26.9141 268.828 26.9141L271.465 27.5977V3.67188Z" fill="#D3F16B"/>
<path d="M306.055 26.7578C303.867 24.2057 302.773 20.3385 302.773 15.1562C302.773 10.0781 304.264 6.23698 307.246 3.63281C307.324 3.55469 307.422 3.47656 307.539 3.39844C305.273 4.40104 303.457 5.98307 302.09 8.14453C300.684 10.3581 299.98 12.7995 299.98 15.4688C299.98 19.0755 301.178 22.1615 303.574 24.7266C304.316 25.5208 305.143 26.1979 306.055 26.7578ZM324.18 15.5273C324.18 14.6029 324.062 13.6589 323.828 12.6953C323.594 11.7188 323.262 10.7682 322.832 9.84375C322.415 8.90625 321.908 8.02083 321.309 7.1875C320.723 6.34115 320.078 5.60547 319.375 4.98047C317.826 3.60026 316.237 2.91016 314.609 2.91016C311.406 2.91016 308.919 4.22526 307.148 6.85547C305.586 9.1862 304.805 11.9531 304.805 15.1562C304.805 17.5 305.013 19.362 305.43 20.7422C305.846 22.1224 306.283 23.2357 306.738 24.082C307.207 24.9154 307.78 25.6445 308.457 26.2695C309.902 27.5846 311.725 28.2422 313.926 28.2422C315.684 28.2422 317.396 27.5716 319.062 26.2305C320.573 24.9935 321.81 23.3659 322.773 21.3477C323.711 19.3685 324.18 17.4284 324.18 15.5273ZM326.211 15.5273C326.211 16.8555 326.035 18.1576 325.684 19.4336C325.345 20.6966 324.863 21.888 324.238 23.0078C323.626 24.1276 322.884 25.1497 322.012 26.0742C321.139 26.9987 320.182 27.793 319.141 28.457C316.94 29.8503 314.577 30.5469 312.051 30.5469C308.184 30.5469 304.857 29.069 302.07 26.1133C300.326 24.2643 299.115 22.0508 298.438 19.4727C298.099 18.1836 297.93 16.849 297.93 15.4688C297.93 12.7474 298.574 10.2148 299.863 7.87109C301.1 5.61849 302.793 3.80859 304.941 2.44141C307.116 1.07422 309.486 0.390625 312.051 0.390625C314.694 0.390625 317.135 1.1263 319.375 2.59766C321.471 3.97786 323.132 5.83333 324.355 8.16406C325.592 10.4948 326.211 12.9492 326.211 15.5273Z" fill="#D3F16B"/>
<path d="M335.254 27.2852C335.905 27.2201 336.758 27.1875 337.812 27.1875L338.496 2.83203C337.402 2.88411 336.452 2.94922 335.645 3.02734L335.254 27.2852ZM349.941 27.6367C348.757 25.9961 348.164 23.1966 348.164 19.2383V18.5352C348.164 18.3008 348.177 18.0924 348.203 17.9102C346.888 18.1445 345.996 18.2812 345.527 18.3203C345.475 18.6849 345.449 19.2188 345.449 19.9219C345.449 20.612 345.508 21.3932 345.625 22.2656C345.755 23.138 345.99 23.9518 346.328 24.707C347.07 26.4258 348.275 27.4023 349.941 27.6367ZM340.176 16.0352C341.048 16.2174 342.031 16.3086 343.125 16.3086C344.219 16.3086 345.176 16.263 345.996 16.1719C346.816 16.0807 347.617 15.931 348.398 15.7227C349.193 15.5143 349.941 15.2409 350.645 14.9023C351.348 14.5508 351.966 14.1211 352.5 13.6133C353.646 12.4805 354.219 11.0612 354.219 9.35547C354.219 6.79036 353.001 4.99349 350.566 3.96484C349.095 3.35286 347.578 2.99479 346.016 2.89062C344.453 2.77344 343.327 2.71484 342.637 2.71484H341.23C340.983 2.71484 340.749 2.72786 340.527 2.75391L340.176 16.0352ZM355.449 22.4023L355.41 21.7969C355.41 21.4974 355.514 21.2565 355.723 21.0742C355.944 20.8919 356.185 20.8008 356.445 20.8008C356.706 20.8008 356.934 20.8919 357.129 21.0742C357.324 21.2435 357.435 21.4583 357.461 21.7188L357.5 22.4023C357.5 24.5508 356.888 26.2956 355.664 27.6367C354.414 29.0169 352.773 29.707 350.742 29.707H350.684C347.298 29.6159 345.085 27.832 344.043 24.3555C343.626 22.9753 343.418 21.4258 343.418 19.707L343.457 18.3984C342.454 18.3984 341.348 18.3073 340.137 18.125L339.844 28.2422C339.844 28.5547 339.74 28.8021 339.531 28.9844C339.336 29.1536 339.095 29.2383 338.809 29.2383C335.762 29.2383 332.988 29.3945 330.488 29.707H330.371C330.072 29.707 329.824 29.6029 329.629 29.3945C329.434 29.1992 329.336 28.9714 329.336 28.7109C329.336 28.4505 329.414 28.2227 329.57 28.0273C329.74 27.832 330.007 27.7083 330.371 27.6562C330.749 27.6042 331.185 27.5586 331.68 27.5195C332.188 27.4805 332.682 27.4414 333.164 27.4023L333.613 3.32031L330.645 3.90625C330.553 3.97135 330.41 4.00391 330.215 4.00391C330.02 4.00391 329.824 3.89974 329.629 3.69141C329.434 3.48307 329.336 3.2487 329.336 2.98828C329.336 2.46745 329.577 2.13542 330.059 1.99219C332.676 1.11979 336.673 0.683594 342.051 0.683594C345.072 0.839844 347.266 1.07422 348.633 1.38672C350.013 1.69922 351.139 2.05729 352.012 2.46094C352.884 2.85156 353.633 3.35938 354.258 3.98438C355.586 5.28646 356.25 7.07682 356.25 9.35547C356.25 11.2174 355.697 12.8711 354.59 14.3164C353.535 15.6966 352.103 16.6862 350.293 17.2852C350.241 17.8841 350.215 18.418 350.215 18.8867C350.215 19.3424 350.221 19.8177 350.234 20.3125C350.247 20.8073 350.28 21.3477 350.332 21.9336C350.384 22.5195 350.462 23.1185 350.566 23.7305C350.684 24.3424 350.833 24.9023 351.016 25.4102C351.445 26.543 352.031 27.1094 352.773 27.1094C353.685 27.1094 354.388 26.5039 354.883 25.293C355.26 24.3945 355.449 23.431 355.449 22.4023Z" fill="#D3F16B"/>
<path d="M6.07422 82.9102C7.20703 83.0143 8.125 83.0859 8.82812 83.125V57.9883C7.98177 58.0534 7.0638 58.1641 6.07422 58.3203V82.9102ZM24.1797 74.0234C24.5052 72.9036 24.668 71.5169 24.668 69.8633C24.668 68.1966 24.3164 66.5625 23.6133 64.9609C22.9102 63.3464 21.9401 61.9987 20.7031 60.918C18.1641 58.7044 14.8893 57.7148 10.8789 57.9492V83.125C14.681 83.2422 17.9167 82.0964 20.5859 79.6875C22.3177 78.138 23.5156 76.25 24.1797 74.0234ZM4.04297 58.6719L0.996094 59.4336C0.696615 59.4336 0.455729 59.3294 0.273438 59.1211C0.0911458 58.8997 0 58.6654 0 58.418C0 57.8971 0.227865 57.5716 0.683594 57.4414C0.735677 57.4284 1.02214 57.3438 1.54297 57.1875C2.07682 57.0182 2.78646 56.8424 3.67188 56.6602C5.98958 56.1654 8.30729 55.918 10.625 55.918C12.9557 55.918 15.0977 56.224 17.0508 56.8359C19.0039 57.4349 20.6966 58.3398 22.1289 59.5508C25.1888 62.1419 26.7188 65.7812 26.7188 70.4688C26.7188 73.5677 25.918 76.276 24.3164 78.5938C22.8451 80.7161 20.7812 82.3633 18.125 83.5352C15.5599 84.6419 12.7279 85.1953 9.62891 85.1953C6.47786 85.1953 3.61328 84.7656 1.03516 83.9062C0.579427 83.724 0.351562 83.444 0.351562 83.0664C0.351562 82.6888 0.46224 82.4023 0.683594 82.207C0.904948 82.0117 1.14583 81.9141 1.40625 81.9141L4.04297 82.5977V58.6719Z" fill="#D3F16B"/>
<path d="M38.6328 58.5938C37.7214 58.6458 36.7904 58.6719 35.8398 58.6719V82.4023C36.2956 82.3763 36.7578 82.3633 37.2266 82.3633C37.7083 82.3633 38.1771 82.3503 38.6328 82.3242V58.5938ZM41.2305 82.3242C44.7331 82.3242 47.8711 82.4154 50.6445 82.5977L51.3477 77.3633C51.3997 77.1029 51.5169 76.8945 51.6992 76.7383C51.8945 76.569 52.1289 76.4844 52.4023 76.4844C52.6888 76.4844 52.9232 76.5951 53.1055 76.8164C53.3008 77.0378 53.3984 77.2591 53.3984 77.4805V77.6367L52.5586 83.8281C52.5195 84.0885 52.4023 84.2969 52.207 84.4531C52.0117 84.6224 51.7839 84.707 51.5234 84.707H51.4844C47.9818 84.4727 44.5508 84.3555 41.1914 84.3555C37.832 84.3555 34.5833 84.4727 31.4453 84.707H31.3477C31.0482 84.681 30.8008 84.5768 30.6055 84.3945C30.4102 84.2122 30.3125 83.9844 30.3125 83.7109C30.3125 83.4245 30.4036 83.1901 30.5859 83.0078C30.7682 82.8125 31.0286 82.7018 31.3672 82.6758C31.7188 82.6367 32.1029 82.6107 32.5195 82.5977C32.9492 82.5716 33.3724 82.5456 33.7891 82.5195V58.7109C33.3724 58.6849 32.9557 58.6719 32.5391 58.6719H31.3086C31.0352 58.6458 30.8008 58.5417 30.6055 58.3594C30.4102 58.1641 30.3125 57.9232 30.3125 57.6367C30.3125 57.3503 30.4167 57.1094 30.625 56.9141C30.8333 56.7057 31.1263 56.6081 31.5039 56.6211C31.8945 56.6341 32.3177 56.6406 32.7734 56.6406H34.1602C39.668 56.6406 45.1302 56.276 50.5469 55.5469H50.7227C50.9831 55.5469 51.2044 55.638 51.3867 55.8203C51.569 55.9896 51.6797 56.1914 51.7188 56.4258L52.5586 63.0273V63.1641C52.5586 63.4635 52.4479 63.7044 52.2266 63.8867C52.0182 64.069 51.7839 64.1602 51.5234 64.1602C51.276 64.1602 51.0547 64.082 50.8594 63.9258C50.6771 63.7565 50.5599 63.5417 50.5078 63.2812L49.8047 57.7148C47.2266 58.0664 44.1862 58.3333 40.6836 58.5156V71.3867C43.4831 71.2695 45.6706 71.0612 47.2461 70.7617H47.4414C47.7148 70.7617 47.9557 70.8659 48.1641 71.0742C48.3724 71.2695 48.4766 71.4974 48.4766 71.7578C48.4766 72.3047 48.1966 72.6497 47.6367 72.793C46.1003 73.0924 43.7826 73.3073 40.6836 73.4375V82.3242H41.2305Z" fill="#D3F16B"/>
<path d="M60.0781 62.9102C59.8698 63.6523 59.7656 64.4141 59.7656 65.1953C59.7656 65.9766 59.8698 66.6862 60.0781 67.3242C60.2995 67.9622 60.7422 68.5742 61.4062 69.1602C62.9167 70.4883 65.5404 71.543 69.2773 72.3242C71.6862 72.8451 73.5091 73.4245 74.7461 74.0625C75.9961 74.6875 76.9661 75.3451 77.6562 76.0352C78.3594 76.7122 78.8086 77.526 79.0039 78.4766C79.1862 77.9427 79.2773 77.3372 79.2773 76.6602C79.2773 75.9701 79.1406 75.3255 78.8672 74.7266C78.6068 74.1276 78.2552 73.6068 77.8125 73.1641C77.3828 72.7083 76.8815 72.3112 76.3086 71.9727C75.7357 71.6341 75.1432 71.3477 74.5312 71.1133C73.6979 70.7878 72.6953 70.4818 71.5234 70.1953C70.3516 69.9089 69.3555 69.6615 68.5352 69.4531C67.7148 69.2448 66.9141 69.0104 66.1328 68.75C65.3516 68.4896 64.6094 68.1901 63.9062 67.8516C63.2031 67.513 62.5781 67.1094 62.0312 66.6406C60.8724 65.638 60.2214 64.3945 60.0781 62.9102ZM59.3164 77.832C62.3503 81.7253 66.1263 83.6719 70.6445 83.6719C73.431 83.6719 75.3776 82.9883 76.4844 81.6211C76.9141 81.1133 77.1289 80.5208 77.1289 79.8438C77.1289 79.1667 76.9792 78.6003 76.6797 78.1445C76.3802 77.6758 75.9896 77.2591 75.5078 76.8945C75.026 76.5299 74.4792 76.2109 73.8672 75.9375C73.2682 75.651 72.6628 75.4036 72.0508 75.1953C71.0742 74.8568 70.0716 74.5833 69.043 74.375C68.0143 74.1667 67.0443 73.9453 66.1328 73.7109C65.2214 73.4635 64.3555 73.1706 63.5352 72.832C62.7148 72.4935 61.9531 72.0964 61.25 71.6406C60.5469 71.1849 59.9349 70.6445 59.4141 70.0195C58.3203 68.7044 57.7734 67.0443 57.7734 65.0391C57.7734 62.0573 58.8802 59.694 61.0938 57.9492C63.125 56.3477 65.5859 55.5469 68.4766 55.5469C70.1042 55.5469 71.901 55.8789 73.8672 56.543C75.7682 57.194 77.0833 57.9427 77.8125 58.7891C78.112 57.9818 78.5352 56.9987 79.082 55.8398C79.3034 55.4622 79.5833 55.2734 79.9219 55.2734C80.2734 55.2734 80.5469 55.3841 80.7422 55.6055C80.9375 55.8138 81.0352 56.0221 81.0352 56.2305C81.0352 56.4258 80.8464 56.9141 80.4688 57.6953C80.0911 58.4766 79.681 59.5768 79.2383 60.9961C78.8086 62.4023 78.5026 63.8281 78.3203 65.2734C78.2943 65.5339 78.1836 65.7487 77.9883 65.918C77.806 66.0742 77.5716 66.1523 77.2852 66.1523C77.0117 66.1523 76.7773 66.0417 76.582 65.8203C76.3867 65.599 76.2891 65.3776 76.2891 65.1562V65.0391C76.4453 63.6589 76.7253 62.2982 77.1289 60.957C76.8945 60.2409 75.7552 59.4987 73.7109 58.7305C71.6797 57.9492 69.8698 57.5586 68.2812 57.5586C65.5469 57.5586 63.6784 58.4049 62.6758 60.0977C62.3242 60.6836 62.1419 61.3932 62.1289 62.2266C62.2591 64.1276 63.4701 65.5404 65.7617 66.4648C66.8685 66.9336 67.9622 67.2852 69.043 67.5195C70.1237 67.7409 71.1198 67.9622 72.0312 68.1836C72.9557 68.3919 74.0169 68.6914 75.2148 69.082C76.4128 69.4727 77.4609 69.987 78.3594 70.625C80.3385 72.0182 81.3281 74.0625 81.3281 76.7578C81.3281 79.4401 80.1628 81.6471 77.832 83.3789C75.7096 84.9414 73.3268 85.7227 70.6836 85.7227C66.0742 85.7227 62.2331 84.082 59.1602 80.8008V81.2695C59.1602 82.0898 59.1862 82.9036 59.2383 83.7109V83.7891C59.2383 84.0495 59.1471 84.2773 58.9648 84.4727C58.7956 84.668 58.5612 84.7721 58.2617 84.7852C57.9753 84.7982 57.7344 84.7135 57.5391 84.5312C57.3438 84.349 57.2331 84.082 57.207 83.7305C57.1549 83.0273 57.1289 82.1159 57.1289 80.9961C57.1289 78.9258 57.3698 76.6862 57.8516 74.2773C57.9948 73.7174 58.3268 73.4375 58.8477 73.4375C59.1471 73.4375 59.3945 73.5547 59.5898 73.7891C59.7852 74.0104 59.8828 74.1862 59.8828 74.3164V74.5508C59.8828 74.5898 59.8568 74.694 59.8047 74.8633C59.7656 75.0326 59.7201 75.2474 59.668 75.5078C59.6289 75.7552 59.5833 75.9961 59.5312 76.2305C59.4922 76.5039 59.4206 77.0378 59.3164 77.832Z" fill="#D3F16B"/>
<path d="M93.4766 58.5938C92.5651 58.6458 91.6341 58.6719 90.6836 58.6719V82.4023C91.1393 82.3763 91.6016 82.3633 92.0703 82.3633C92.5521 82.3633 93.0208 82.3503 93.4766 82.3242V58.5938ZM96.0742 82.3242C99.5768 82.3242 102.715 82.4154 105.488 82.5977L106.191 77.3633C106.243 77.1029 106.361 76.8945 106.543 76.7383C106.738 76.569 106.973 76.4844 107.246 76.4844C107.533 76.4844 107.767 76.5951 107.949 76.8164C108.145 77.0378 108.242 77.2591 108.242 77.4805V77.6367L107.402 83.8281C107.363 84.0885 107.246 84.2969 107.051 84.4531C106.855 84.6224 106.628 84.707 106.367 84.707H106.328C102.826 84.4727 99.3945 84.3555 96.0352 84.3555C92.6758 84.3555 89.4271 84.4727 86.2891 84.707H86.1914C85.8919 84.681 85.6445 84.5768 85.4492 84.3945C85.2539 84.2122 85.1562 83.9844 85.1562 83.7109C85.1562 83.4245 85.2474 83.1901 85.4297 83.0078C85.612 82.8125 85.8724 82.7018 86.2109 82.6758C86.5625 82.6367 86.9466 82.6107 87.3633 82.5977C87.793 82.5716 88.2161 82.5456 88.6328 82.5195V58.7109C88.2161 58.6849 87.7995 58.6719 87.3828 58.6719H86.1523C85.8789 58.6458 85.6445 58.5417 85.4492 58.3594C85.2539 58.1641 85.1562 57.9232 85.1562 57.6367C85.1562 57.3503 85.2604 57.1094 85.4688 56.9141C85.6771 56.7057 85.9701 56.6081 86.3477 56.6211C86.7383 56.6341 87.1615 56.6406 87.6172 56.6406H89.0039C94.5117 56.6406 99.974 56.276 105.391 55.5469H105.566C105.827 55.5469 106.048 55.638 106.23 55.8203C106.413 55.9896 106.523 56.1914 106.562 56.4258L107.402 63.0273V63.1641C107.402 63.4635 107.292 63.7044 107.07 63.8867C106.862 64.069 106.628 64.1602 106.367 64.1602C106.12 64.1602 105.898 64.082 105.703 63.9258C105.521 63.7565 105.404 63.5417 105.352 63.2812L104.648 57.7148C102.07 58.0664 99.0299 58.3333 95.5273 58.5156V71.3867C98.3268 71.2695 100.514 71.0612 102.09 70.7617H102.285C102.559 70.7617 102.799 70.8659 103.008 71.0742C103.216 71.2695 103.32 71.4974 103.32 71.7578C103.32 72.3047 103.04 72.6497 102.48 72.793C100.944 73.0924 98.6263 73.3073 95.5273 73.4375V82.3242H96.0742Z" fill="#D3F16B"/>
<path d="M120.41 57.9883C120.41 57.9883 119.935 57.9883 118.984 57.9883C118.529 57.9883 118.053 57.9753 117.559 57.9492L117.129 82.3633H119.727L120.41 57.9883ZM132.246 55.5859C132.884 55.6771 133.633 55.7227 134.492 55.7227C136.185 55.7227 137.878 55.4948 139.57 55.0391C139.622 55.013 139.753 55 139.961 55C140.169 55 140.365 55.1042 140.547 55.3125C140.742 55.5078 140.84 55.7227 140.84 55.957C140.84 56.5039 140.612 56.8424 140.156 56.9727C139.167 57.2461 138.262 57.4414 137.441 57.5586C138.053 61.2826 138.359 64.8177 138.359 68.1641C138.359 73.0599 138.014 78.2812 137.324 83.8281C137.168 84.4141 136.842 84.707 136.348 84.707C135.866 84.707 135.54 84.4987 135.371 84.082C134.342 81.5951 132.845 78.5612 130.879 74.9805C128.913 71.3867 127.513 68.8411 126.68 67.3438C125.234 64.7917 123.809 62.2786 122.402 59.8047L121.816 82.4414C122.559 82.4935 123.581 82.5716 124.883 82.6758C125.143 82.7148 125.358 82.832 125.527 83.0273C125.71 83.2227 125.801 83.4635 125.801 83.75C125.801 84.0234 125.69 84.2513 125.469 84.4336C125.247 84.6159 125.013 84.707 124.766 84.707H124.688C120.534 84.2904 116.426 84.2904 112.363 84.707H112.285C111.999 84.707 111.751 84.6029 111.543 84.3945C111.348 84.1992 111.25 83.9714 111.25 83.7109C111.25 83.4505 111.335 83.2227 111.504 83.0273C111.686 82.832 111.96 82.7148 112.324 82.6758C112.702 82.6367 113.132 82.5977 113.613 82.5586C114.108 82.5195 114.596 82.4805 115.078 82.4414L115.527 57.793C114.408 57.7148 113.275 57.5977 112.129 57.4414C111.868 57.4023 111.654 57.2852 111.484 57.0898C111.328 56.8815 111.25 56.6341 111.25 56.3477C111.25 56.0612 111.367 55.8333 111.602 55.6641C111.836 55.4818 112.064 55.3906 112.285 55.3906H112.402C115.293 55.7682 117.988 55.957 120.488 55.957H121.934C122.311 55.957 122.565 56.0612 122.695 56.2695C122.826 56.4648 123.034 56.8099 123.32 57.3047C123.607 57.7995 123.978 58.444 124.434 59.2383C124.889 60.0326 125.41 60.9505 125.996 61.9922C126.595 63.0339 127.227 64.1471 127.891 65.332C128.568 66.5169 129.258 67.7474 129.961 69.0234C130.664 70.2995 131.354 71.569 132.031 72.832C133.659 75.8529 134.889 78.2161 135.723 79.9219C136.126 75.8594 136.328 72.3242 136.328 69.3164C136.328 65.3971 136.022 61.5299 135.41 57.7148C135.241 57.7409 135.078 57.7539 134.922 57.7539H134.414C132.643 57.7539 131.647 57.6302 131.426 57.3828C131.204 57.1224 131.094 56.8555 131.094 56.582C131.094 56.3086 131.198 56.0742 131.406 55.8789C131.628 55.6836 131.868 55.5859 132.129 55.5859H132.246Z" fill="#D3F16B"/>
<path d="M153.301 58.6719C148.822 60.8854 146.582 64.9935 146.582 70.9961C146.582 75.0065 147.747 78.0469 150.078 80.1172C150.846 80.8073 151.758 81.4323 152.812 81.9922C150.599 79.3099 149.492 75.4036 149.492 70.2734C149.492 65.1823 150.762 61.3151 153.301 58.6719ZM159.453 55.2344C163.086 55.2344 165.97 56.5039 168.105 59.043L169.18 55.957C169.349 55.4753 169.622 55.2344 170 55.2344C170.378 55.2344 170.664 55.3451 170.859 55.5664C171.068 55.7747 171.172 55.9766 171.172 56.1719C171.172 56.3542 171.146 56.4974 171.094 56.6016L167.988 65.6836C167.858 66.1263 167.585 66.3477 167.168 66.3477C166.764 66.3477 166.465 66.237 166.27 66.0156C166.074 65.7943 165.977 65.6055 165.977 65.4492C165.977 65.2799 166.003 65.1432 166.055 65.0391L167.305 61.3867C166.198 59.6159 164.72 58.4049 162.871 57.7539C162.259 57.5456 161.497 57.4414 160.586 57.4414C159.688 57.4414 158.77 57.6237 157.832 57.9883C156.908 58.3529 156.094 58.8477 155.391 59.4727C154.701 60.0977 154.108 60.8333 153.613 61.6797C153.118 62.513 152.721 63.4049 152.422 64.3555C151.836 66.1523 151.543 68.125 151.543 70.2734C151.543 73.4375 152.038 76.2174 153.027 78.6133C153.796 80.4622 154.883 81.7773 156.289 82.5586C157.018 82.9622 157.904 83.1641 158.945 83.1641C160 83.1641 161.035 83.0013 162.051 82.6758C163.079 82.3503 164.01 81.8815 164.844 81.2695C166.602 80.0065 167.832 78.3398 168.535 76.2695C168.678 75.7357 168.952 75.4688 169.355 75.4688C169.759 75.4688 170.059 75.5794 170.254 75.8008C170.449 76.0221 170.547 76.263 170.547 76.5234V76.7578C170.534 76.7839 170.488 76.9141 170.41 77.1484C170.345 77.3828 170.234 77.6888 170.078 78.0664C168.841 80.8659 166.836 82.8776 164.062 84.1016C162.396 84.8307 160.547 85.1823 158.516 85.1562C156.497 85.1432 154.603 84.7982 152.832 84.1211C151.074 83.431 149.583 82.4674 148.359 81.2305C145.807 78.6914 144.531 75.2799 144.531 70.9961C144.531 65.4883 146.159 61.3737 149.414 58.6523C152.161 56.3737 155.508 55.2344 159.453 55.2344Z" fill="#D3F16B"/>
<path d="M179.59 82.2852C180.241 82.2201 181.094 82.1875 182.148 82.1875L182.832 57.832C181.738 57.8841 180.788 57.9492 179.98 58.0273L179.59 82.2852ZM194.277 82.6367C193.092 80.9961 192.5 78.1966 192.5 74.2383V73.5352C192.5 73.3008 192.513 73.0924 192.539 72.9102C191.224 73.1445 190.332 73.2812 189.863 73.3203C189.811 73.6849 189.785 74.2188 189.785 74.9219C189.785 75.612 189.844 76.3932 189.961 77.2656C190.091 78.138 190.326 78.9518 190.664 79.707C191.406 81.4258 192.611 82.4023 194.277 82.6367ZM184.512 71.0352C185.384 71.2174 186.367 71.3086 187.461 71.3086C188.555 71.3086 189.512 71.263 190.332 71.1719C191.152 71.0807 191.953 70.931 192.734 70.7227C193.529 70.5143 194.277 70.2409 194.98 69.9023C195.684 69.5508 196.302 69.1211 196.836 68.6133C197.982 67.4805 198.555 66.0612 198.555 64.3555C198.555 61.7904 197.337 59.9935 194.902 58.9648C193.431 58.3529 191.914 57.9948 190.352 57.8906C188.789 57.7734 187.663 57.7148 186.973 57.7148H185.566C185.319 57.7148 185.085 57.7279 184.863 57.7539L184.512 71.0352ZM199.785 77.4023L199.746 76.7969C199.746 76.4974 199.85 76.2565 200.059 76.0742C200.28 75.8919 200.521 75.8008 200.781 75.8008C201.042 75.8008 201.27 75.8919 201.465 76.0742C201.66 76.2435 201.771 76.4583 201.797 76.7188L201.836 77.4023C201.836 79.5508 201.224 81.2956 200 82.6367C198.75 84.0169 197.109 84.707 195.078 84.707H195.02C191.634 84.6159 189.421 82.832 188.379 79.3555C187.962 77.9753 187.754 76.4258 187.754 74.707L187.793 73.3984C186.79 73.3984 185.684 73.3073 184.473 73.125L184.18 83.2422C184.18 83.5547 184.076 83.8021 183.867 83.9844C183.672 84.1536 183.431 84.2383 183.145 84.2383C180.098 84.2383 177.324 84.3945 174.824 84.707H174.707C174.408 84.707 174.16 84.6029 173.965 84.3945C173.77 84.1992 173.672 83.9714 173.672 83.7109C173.672 83.4505 173.75 83.2227 173.906 83.0273C174.076 82.832 174.342 82.7083 174.707 82.6562C175.085 82.6042 175.521 82.5586 176.016 82.5195C176.523 82.4805 177.018 82.4414 177.5 82.4023L177.949 58.3203L174.98 58.9062C174.889 58.9714 174.746 59.0039 174.551 59.0039C174.355 59.0039 174.16 58.8997 173.965 58.6914C173.77 58.4831 173.672 58.2487 173.672 57.9883C173.672 57.4674 173.913 57.1354 174.395 56.9922C177.012 56.1198 181.009 55.6836 186.387 55.6836C189.408 55.8398 191.602 56.0742 192.969 56.3867C194.349 56.6992 195.475 57.0573 196.348 57.4609C197.22 57.8516 197.969 58.3594 198.594 58.9844C199.922 60.2865 200.586 62.0768 200.586 64.3555C200.586 66.2174 200.033 67.8711 198.926 69.3164C197.871 70.6966 196.439 71.6862 194.629 72.2852C194.577 72.8841 194.551 73.418 194.551 73.8867C194.551 74.3424 194.557 74.8177 194.57 75.3125C194.583 75.8073 194.616 76.3477 194.668 76.9336C194.72 77.5195 194.798 78.1185 194.902 78.7305C195.02 79.3424 195.169 79.9023 195.352 80.4102C195.781 81.543 196.367 82.1094 197.109 82.1094C198.021 82.1094 198.724 81.5039 199.219 80.293C199.596 79.3945 199.785 78.431 199.785 77.4023Z" fill="#D3F16B"/>
<path d="M214.199 58.2812C214.199 58.2812 213.724 58.2812 212.773 58.2812C212.318 58.2812 211.842 58.2682 211.348 58.2422L210.918 82.2852H213.516L214.199 58.2812ZM206.191 55.6836C208.77 56.0482 211.224 56.2305 213.555 56.2305C215.885 56.2305 217.702 56.1654 219.004 56.0352H219.082C219.382 56.0352 219.629 56.1393 219.824 56.3477C220.02 56.556 220.117 56.7969 220.117 57.0703C220.117 57.3307 220.026 57.5586 219.844 57.7539C219.661 57.9362 219.382 58.0469 219.004 58.0859C218.327 58.151 217.402 58.2161 216.23 58.2812L215.605 82.3633C216.348 82.4154 217.37 82.4935 218.672 82.5977C219.284 82.7279 219.59 83.099 219.59 83.7109C219.564 83.9974 219.447 84.2188 219.238 84.375C219.043 84.5443 218.815 84.6289 218.555 84.6289H218.477C214.323 84.2122 210.215 84.2122 206.152 84.6289H206.074C205.775 84.6289 205.527 84.5312 205.332 84.3359C205.137 84.1276 205.039 83.8932 205.039 83.6328C205.039 83.3724 205.124 83.1445 205.293 82.9492C205.475 82.7539 205.749 82.6367 206.113 82.5977C206.491 82.5586 206.921 82.5195 207.402 82.4805C207.897 82.4414 208.385 82.4023 208.867 82.3633L209.316 58.0664C208.197 57.9883 207.064 57.8711 205.918 57.7148C205.658 57.6758 205.443 57.5586 205.273 57.3633C205.117 57.168 205.039 56.9271 205.039 56.6406C205.039 56.3542 205.156 56.1263 205.391 55.957C205.625 55.7747 205.853 55.6836 206.074 55.6836H206.191Z" fill="#D3F16B"/>
<path d="M232.285 57.7148C231.191 57.7669 230.241 57.832 229.434 57.9102L229.004 82.3633H231.602L232.285 57.7148ZM233.887 74.1992C234.694 74.4076 235.703 74.5117 236.914 74.5117C238.125 74.5117 239.349 74.3359 240.586 73.9844C241.836 73.6198 242.93 73.0859 243.867 72.3828C245.924 70.8594 246.953 68.7565 246.953 66.0742C246.953 62.3503 244.941 59.8503 240.918 58.5742C239.434 58.0924 237.689 57.806 235.684 57.7148H234.316L233.887 74.1992ZM236.562 84.707C232.409 84.2904 228.301 84.2904 224.238 84.707H224.16C223.874 84.707 223.626 84.6029 223.418 84.3945C223.223 84.1992 223.125 83.9714 223.125 83.7109C223.125 83.4505 223.21 83.2227 223.379 83.0273C223.561 82.832 223.835 82.7148 224.199 82.6758C224.577 82.6367 225.007 82.5977 225.488 82.5586C225.983 82.5195 226.471 82.4805 226.953 82.4414L227.402 58.2031C226.439 58.3594 225.723 58.5156 225.254 58.6719C224.798 58.8281 224.525 58.9258 224.434 58.9648C224.342 58.9909 224.199 59.0039 224.004 59.0039C223.822 59.0039 223.626 58.8932 223.418 58.6719C223.223 58.4505 223.125 58.2227 223.125 57.9883C223.125 57.4805 223.34 57.1484 223.77 56.9922C226.465 56.0938 229.85 55.6445 233.926 55.6445H234.805C235.117 55.6445 235.632 55.6641 236.348 55.7031C237.064 55.7292 237.969 55.8333 239.062 56.0156C240.156 56.1979 241.198 56.4779 242.188 56.8555C243.177 57.2201 244.082 57.6758 244.902 58.2227C245.736 58.7695 246.458 59.4206 247.07 60.1758C248.359 61.7904 249.004 63.7565 249.004 66.0742C249.004 69.2904 247.676 71.8945 245.02 73.8867C242.624 75.6706 239.844 76.5625 236.68 76.5625C235.573 76.5625 234.629 76.4648 233.848 76.2695L233.691 82.4414C234.434 82.4935 235.456 82.5716 236.758 82.6758C237.018 82.7148 237.233 82.832 237.402 83.0273C237.585 83.2227 237.676 83.4635 237.676 83.75C237.676 84.0234 237.565 84.2513 237.344 84.4336C237.122 84.6159 236.888 84.707 236.641 84.707H236.562Z" fill="#D3F16B"/>
<path d="M264.727 58.4375C264.727 58.4375 263.789 58.4245 261.914 58.3984L261.484 82.4805C261.706 82.4544 261.927 82.4414 262.148 82.4414C262.565 82.4414 262.936 82.4414 263.262 82.4414C263.587 82.4414 263.861 82.4544 264.082 82.4805L264.727 58.4375ZM253.516 55.8398C256.224 56.2044 259.766 56.3867 264.141 56.3867C268.516 56.3867 271.51 56.3216 273.125 56.1914H273.203C273.438 56.1914 273.652 56.276 273.848 56.4453C274.043 56.6016 274.147 56.7448 274.16 56.875C274.186 56.9922 274.219 57.1549 274.258 57.3633C274.297 57.5716 274.349 57.8516 274.414 58.2031C274.479 58.5547 274.557 58.9583 274.648 59.4141C274.753 59.8698 274.863 60.3451 274.98 60.8398C275.28 62.0638 275.553 63.0208 275.801 63.7109L275.84 64.043C275.84 64.3164 275.729 64.5573 275.508 64.7656C275.299 64.974 275.078 65.0781 274.844 65.0781C274.349 65.0781 274.017 64.8372 273.848 64.3555C273.171 62.3893 272.676 60.3776 272.363 58.3203C270.879 58.3984 269.01 58.4375 266.758 58.4375L266.113 82.5586C268.366 82.6367 269.596 82.7995 269.805 83.0469C270.013 83.2812 270.117 83.5482 270.117 83.8477C270.117 84.1341 270.007 84.3685 269.785 84.5508C269.577 84.7461 269.355 84.8438 269.121 84.8438H269.004C267.207 84.6224 265.137 84.5117 262.793 84.5117C260.449 84.5117 258.424 84.6224 256.719 84.8438H256.602C256.315 84.8438 256.068 84.7331 255.859 84.5117C255.664 84.2904 255.566 84.0495 255.566 83.7891C255.566 83.5286 255.651 83.3008 255.82 83.1055C256.094 82.832 257.298 82.6497 259.434 82.5586L259.883 58.3203C257.826 58.2422 255.918 58.1315 254.16 57.9883C254.082 58.3398 253.984 58.7695 253.867 59.2773C253.763 59.7852 253.646 60.3255 253.516 60.8984C253.099 62.5911 252.832 63.6393 252.715 64.043C252.507 64.7331 252.161 65.0781 251.68 65.0781C251.38 65.0781 251.133 64.974 250.938 64.7656C250.742 64.5443 250.645 64.3555 250.645 64.1992V63.8867C250.645 63.8346 250.697 63.6263 250.801 63.2617C250.918 62.8971 251.074 62.3047 251.27 61.4844C251.465 60.6641 251.641 59.8958 251.797 59.1797C252.174 57.5521 252.363 56.7057 252.363 56.6406C252.507 56.1068 252.839 55.8398 253.359 55.8398H253.516Z" fill="#D3F16B"/>
<path d="M283.477 74.082C285.794 74.3424 287.585 74.4727 288.848 74.4727C290.788 74.4727 292.845 74.3424 295.02 74.082C293.587 69.694 291.673 65.7292 289.277 62.1875C286.868 66.276 284.935 70.2409 283.477 74.082ZM299.59 82.1875L301.23 82.1484H301.836C302.031 82.1484 302.227 82.1615 302.422 82.1875C300.117 72.3568 296.628 64.2643 291.953 57.9102L290.43 60.2734C293.112 63.9453 295.273 68.2682 296.914 73.2422C298.438 77.9948 299.329 80.9766 299.59 82.1875ZM285.742 84.8047C284.401 84.401 282.708 84.1992 280.664 84.1992C278.62 84.1992 276.927 84.401 275.586 84.8047C275.286 84.8047 275.039 84.7005 274.844 84.4922C274.648 84.2839 274.551 84.0495 274.551 83.7891C274.551 83.2422 274.831 82.8971 275.391 82.7539C276.289 82.5195 277.474 82.3438 278.945 82.2266C280.664 73.8672 284.694 64.987 291.035 55.5859C291.243 55.2995 291.478 55.1562 291.738 55.1562C292.181 55.1562 292.493 55.2734 292.676 55.5078C298.092 62.4219 302.051 71.3477 304.551 82.2852C305.879 82.4023 307.201 82.5586 308.516 82.7539C308.776 82.793 308.984 82.9102 309.141 83.1055C309.31 83.3008 309.395 83.5286 309.395 83.7891C309.395 84.0495 309.277 84.2839 309.043 84.4922C308.822 84.7005 308.646 84.8047 308.516 84.8047C308.333 84.8047 307.936 84.7461 307.324 84.6289C304.798 84.1732 301.654 84.082 297.891 84.3555C296.784 84.4336 295.951 84.5247 295.391 84.6289C294.831 84.7331 294.538 84.7852 294.512 84.7852C294.486 84.7982 294.395 84.8047 294.238 84.8047C294.082 84.8047 293.9 84.694 293.691 84.4727C293.496 84.2513 293.398 84.0169 293.398 83.7695C293.398 83.5221 293.477 83.3008 293.633 83.1055C293.802 82.9102 294.082 82.7799 294.473 82.7148C294.863 82.6367 295.326 82.5716 295.859 82.5195C296.393 82.4544 296.94 82.3893 297.5 82.3242C296.927 80.1497 296.315 78.0534 295.664 76.0352C293.359 76.3607 291.25 76.5234 289.336 76.5234C287.422 76.5234 285.228 76.3607 282.754 76.0352C282.064 78.0924 281.504 80.1302 281.074 82.1484C282.728 82.2005 284.368 82.4023 285.996 82.7539C286.23 82.793 286.419 82.9102 286.562 83.1055C286.719 83.3008 286.797 83.5352 286.797 83.8086C286.797 84.069 286.68 84.2969 286.445 84.4922C286.224 84.7005 285.99 84.8047 285.742 84.8047Z" fill="#D3F16B"/>
<path d="M315.918 82.9102C317.051 83.0143 317.969 83.0859 318.672 83.125V57.9883C317.826 58.0534 316.908 58.1641 315.918 58.3203V82.9102ZM334.023 74.0234C334.349 72.9036 334.512 71.5169 334.512 69.8633C334.512 68.1966 334.16 66.5625 333.457 64.9609C332.754 63.3464 331.784 61.9987 330.547 60.918C328.008 58.7044 324.733 57.7148 320.723 57.9492V83.125C324.525 83.2422 327.76 82.0964 330.43 79.6875C332.161 78.138 333.359 76.25 334.023 74.0234ZM313.887 58.6719L310.84 59.4336C310.54 59.4336 310.299 59.3294 310.117 59.1211C309.935 58.8997 309.844 58.6654 309.844 58.418C309.844 57.8971 310.072 57.5716 310.527 57.4414C310.579 57.4284 310.866 57.3438 311.387 57.1875C311.921 57.0182 312.63 56.8424 313.516 56.6602C315.833 56.1654 318.151 55.918 320.469 55.918C322.799 55.918 324.941 56.224 326.895 56.8359C328.848 57.4349 330.54 58.3398 331.973 59.5508C335.033 62.1419 336.562 65.7812 336.562 70.4688C336.562 73.5677 335.762 76.276 334.16 78.5938C332.689 80.7161 330.625 82.3633 327.969 83.5352C325.404 84.6419 322.572 85.1953 319.473 85.1953C316.322 85.1953 313.457 84.7656 310.879 83.9062C310.423 83.724 310.195 83.444 310.195 83.0664C310.195 82.6888 310.306 82.4023 310.527 82.207C310.749 82.0117 310.99 81.9141 311.25 81.9141L313.887 82.5977V58.6719Z" fill="#D3F16B"/>
<path d="M348.477 81.7578C346.289 79.2057 345.195 75.3385 345.195 70.1562C345.195 65.0781 346.686 61.237 349.668 58.6328C349.746 58.5547 349.844 58.4766 349.961 58.3984C347.695 59.401 345.879 60.9831 344.512 63.1445C343.105 65.3581 342.402 67.7995 342.402 70.4688C342.402 74.0755 343.6 77.1615 345.996 79.7266C346.738 80.5208 347.565 81.1979 348.477 81.7578ZM366.602 70.5273C366.602 69.6029 366.484 68.6589 366.25 67.6953C366.016 66.7188 365.684 65.7682 365.254 64.8438C364.837 63.9062 364.329 63.0208 363.73 62.1875C363.145 61.3411 362.5 60.6055 361.797 59.9805C360.247 58.6003 358.659 57.9102 357.031 57.9102C353.828 57.9102 351.341 59.2253 349.57 61.8555C348.008 64.1862 347.227 66.9531 347.227 70.1562C347.227 72.5 347.435 74.362 347.852 75.7422C348.268 77.1224 348.704 78.2357 349.16 79.082C349.629 79.9154 350.202 80.6445 350.879 81.2695C352.324 82.5846 354.147 83.2422 356.348 83.2422C358.105 83.2422 359.818 82.5716 361.484 81.2305C362.995 79.9935 364.232 78.3659 365.195 76.3477C366.133 74.3685 366.602 72.4284 366.602 70.5273ZM368.633 70.5273C368.633 71.8555 368.457 73.1576 368.105 74.4336C367.767 75.6966 367.285 76.888 366.66 78.0078C366.048 79.1276 365.306 80.1497 364.434 81.0742C363.561 81.9987 362.604 82.793 361.562 83.457C359.362 84.8503 356.999 85.5469 354.473 85.5469C350.605 85.5469 347.279 84.069 344.492 81.1133C342.747 79.2643 341.536 77.0508 340.859 74.4727C340.521 73.1836 340.352 71.849 340.352 70.4688C340.352 67.7474 340.996 65.2148 342.285 62.8711C343.522 60.6185 345.215 58.8086 347.363 57.4414C349.538 56.0742 351.908 55.3906 354.473 55.3906C357.116 55.3906 359.557 56.1263 361.797 57.5977C363.893 58.9779 365.553 60.8333 366.777 63.1641C368.014 65.4948 368.633 67.9492 368.633 70.5273Z" fill="#D3F16B"/>
<path d="M377.676 82.2852C378.327 82.2201 379.18 82.1875 380.234 82.1875L380.918 57.832C379.824 57.8841 378.874 57.9492 378.066 58.0273L377.676 82.2852ZM392.363 82.6367C391.178 80.9961 390.586 78.1966 390.586 74.2383V73.5352C390.586 73.3008 390.599 73.0924 390.625 72.9102C389.31 73.1445 388.418 73.2812 387.949 73.3203C387.897 73.6849 387.871 74.2188 387.871 74.9219C387.871 75.612 387.93 76.3932 388.047 77.2656C388.177 78.138 388.411 78.9518 388.75 79.707C389.492 81.4258 390.697 82.4023 392.363 82.6367ZM382.598 71.0352C383.47 71.2174 384.453 71.3086 385.547 71.3086C386.641 71.3086 387.598 71.263 388.418 71.1719C389.238 71.0807 390.039 70.931 390.82 70.7227C391.615 70.5143 392.363 70.2409 393.066 69.9023C393.77 69.5508 394.388 69.1211 394.922 68.6133C396.068 67.4805 396.641 66.0612 396.641 64.3555C396.641 61.7904 395.423 59.9935 392.988 58.9648C391.517 58.3529 390 57.9948 388.438 57.8906C386.875 57.7734 385.749 57.7148 385.059 57.7148H383.652C383.405 57.7148 383.171 57.7279 382.949 57.7539L382.598 71.0352ZM397.871 77.4023L397.832 76.7969C397.832 76.4974 397.936 76.2565 398.145 76.0742C398.366 75.8919 398.607 75.8008 398.867 75.8008C399.128 75.8008 399.355 75.8919 399.551 76.0742C399.746 76.2435 399.857 76.4583 399.883 76.7188L399.922 77.4023C399.922 79.5508 399.31 81.2956 398.086 82.6367C396.836 84.0169 395.195 84.707 393.164 84.707H393.105C389.72 84.6159 387.507 82.832 386.465 79.3555C386.048 77.9753 385.84 76.4258 385.84 74.707L385.879 73.3984C384.876 73.3984 383.77 73.3073 382.559 73.125L382.266 83.2422C382.266 83.5547 382.161 83.8021 381.953 83.9844C381.758 84.1536 381.517 84.2383 381.23 84.2383C378.184 84.2383 375.41 84.3945 372.91 84.707H372.793C372.493 84.707 372.246 84.6029 372.051 84.3945C371.855 84.1992 371.758 83.9714 371.758 83.7109C371.758 83.4505 371.836 83.2227 371.992 83.0273C372.161 82.832 372.428 82.7083 372.793 82.6562C373.171 82.6042 373.607 82.5586 374.102 82.5195C374.609 82.4805 375.104 82.4414 375.586 82.4023L376.035 58.3203L373.066 58.9062C372.975 58.9714 372.832 59.0039 372.637 59.0039C372.441 59.0039 372.246 58.8997 372.051 58.6914C371.855 58.4831 371.758 58.2487 371.758 57.9883C371.758 57.4674 371.999 57.1354 372.48 56.9922C375.098 56.1198 379.095 55.6836 384.473 55.6836C387.493 55.8398 389.688 56.0742 391.055 56.3867C392.435 56.6992 393.561 57.0573 394.434 57.4609C395.306 57.8516 396.055 58.3594 396.68 58.9844C398.008 60.2865 398.672 62.0768 398.672 64.3555C398.672 66.2174 398.118 67.8711 397.012 69.3164C395.957 70.6966 394.525 71.6862 392.715 72.2852C392.663 72.8841 392.637 73.418 392.637 73.8867C392.637 74.3424 392.643 74.8177 392.656 75.3125C392.669 75.8073 392.702 76.3477 392.754 76.9336C392.806 77.5195 392.884 78.1185 392.988 78.7305C393.105 79.3424 393.255 79.9023 393.438 80.4102C393.867 81.543 394.453 82.1094 395.195 82.1094C396.107 82.1094 396.81 81.5039 397.305 80.293C397.682 79.3945 397.871 78.431 397.871 77.4023Z" fill="#D3F16B"/>
</svg>
